<svg width="111" height="110" viewBox="0 0 111 110" fill="none" xmlns="http://www.w3.org/2000/svg">
<circle cx="109.5" cy="109.5" r="109.5" fill="#E3EEFF"/>
<path d="M76 73.9062V80H52.1875V74.8438L63.1562 63.3125C64.125 62.2031 64.9062 61.2109 65.5 60.3359C66.0938 59.4453 66.5234 58.6406 66.7891 57.9219C67.0703 57.2031 67.2109 56.5547 67.2109 55.9766C67.2109 54.9922 67.0625 54.1719 66.7656 53.5156C66.4844 52.8438 66.0625 52.3359 65.5 51.9922C64.9531 51.6484 64.2734 51.4766 63.4609 51.4766C62.6484 51.4766 61.9375 51.7109 61.3281 52.1797C60.7188 52.6484 60.2422 53.2891 59.8984 54.1016C59.5703 54.9141 59.4062 55.8281 59.4062 56.8438H51.4844C51.4844 54.75 51.9922 52.8359 53.0078 51.1016C54.0391 49.3672 55.4688 47.9844 57.2969 46.9531C59.125 45.9062 61.2422 45.3828 63.6484 45.3828C66.1641 45.3828 68.2734 45.7734 69.9766 46.5547C71.6797 47.3359 72.9609 48.4688 73.8203 49.9531C74.6953 51.4219 75.1328 53.1953 75.1328 55.2734C75.1328 56.4609 74.9453 57.6016 74.5703 58.6953C74.1953 59.7891 73.6562 60.875 72.9531 61.9531C72.25 63.0156 71.3906 64.1094 70.375 65.2344C69.375 66.3594 68.2344 67.5547 66.9531 68.8203L62.5469 73.9062H76Z" fill="white"/>
</svg>
