<svg width="109" height="110" viewBox="0 0 109 110" fill="none" xmlns="http://www.w3.org/2000/svg">
<circle cx="109.5" cy="109.5" r="109.5" fill="#E3EEFF"/>
<path d="M59.3828 59.6328H63.2266C64.2109 59.6328 65.0156 59.4609 65.6406 59.1172C66.2812 58.7578 66.7578 58.2578 67.0703 57.6172C67.3828 56.9609 67.5391 56.1875 67.5391 55.2969C67.5391 54.6094 67.3906 53.9766 67.0938 53.3984C66.8125 52.8203 66.375 52.3594 65.7812 52.0156C65.1875 51.6562 64.4297 51.4766 63.5078 51.4766C62.8828 51.4766 62.2734 51.6094 61.6797 51.875C61.0859 52.125 60.5938 52.4844 60.2031 52.9531C59.8281 53.4219 59.6406 53.9922 59.6406 54.6641H51.7188C51.7188 52.7266 52.25 51.0703 53.3125 49.6953C54.3906 48.3047 55.8047 47.2422 57.5547 46.5078C59.3203 45.7578 61.2188 45.3828 63.25 45.3828C65.6719 45.3828 67.7969 45.7578 69.625 46.5078C71.4531 47.2422 72.875 48.3359 73.8906 49.7891C74.9219 51.2266 75.4375 53.0078 75.4375 55.1328C75.4375 56.3047 75.1641 57.4062 74.6172 58.4375C74.0703 59.4688 73.3047 60.375 72.3203 61.1562C71.3359 61.9375 70.1797 62.5547 68.8516 63.0078C67.5391 63.4453 66.1016 63.6641 64.5391 63.6641H59.3828V59.6328ZM59.3828 65.5156V61.5781H64.5391C66.2422 61.5781 67.7969 61.7734 69.2031 62.1641C70.6094 62.5391 71.8203 63.1016 72.8359 63.8516C73.8516 64.6016 74.6328 65.5312 75.1797 66.6406C75.7266 67.7344 76 68.9922 76 70.4141C76 72.0078 75.6797 73.4297 75.0391 74.6797C74.3984 75.9297 73.5 76.9844 72.3438 77.8438C71.1875 78.7031 69.8359 79.3594 68.2891 79.8125C66.7422 80.25 65.0625 80.4688 63.25 80.4688C61.8281 80.4688 60.4062 80.2812 58.9844 79.9062C57.5625 79.5156 56.2656 78.9219 55.0938 78.125C53.9219 77.3125 52.9766 76.2812 52.2578 75.0312C51.5547 73.7656 51.2031 72.2578 51.2031 70.5078H59.125C59.125 71.2266 59.3203 71.8828 59.7109 72.4766C60.1172 73.0547 60.6562 73.5156 61.3281 73.8594C62 74.2031 62.7266 74.375 63.5078 74.375C64.4766 74.375 65.2969 74.1953 65.9688 73.8359C66.6562 73.4609 67.1797 72.9609 67.5391 72.3359C67.8984 71.7109 68.0781 71.0156 68.0781 70.25C68.0781 69.0938 67.8828 68.1719 67.4922 67.4844C67.1172 66.7969 66.5625 66.2969 65.8281 65.9844C65.1094 65.6719 64.2422 65.5156 63.2266 65.5156H59.3828Z" fill="white"/>
</svg>
